0
SECTION
2
HEADER
9
$INSUNITS
70
4
9
$ACADVER
1
AC1014
9
$HANDSEED
5
FFFF
0
ENDSEC
0
SECTION
2
TABLES
0
TABLE
2
VPORT
5
8
100
AcDbSymbolTable
0
ENDTAB
0
TABLE
2
LTYPE
5
5
100
AcDbSymbolTable
0
LTYPE
5
14
100
AcDbSymbolTableRecord
100
AcDbLinetypeTableRecord
2
BYBLOCK
70
0
0
LTYPE
5
15
100
AcDbSymbolTableRecord
100
AcDbLinetypeTableRecord
2
BYLAYER
70
0
0
ENDTAB
0
TABLE
2
LAYER
5
2
100
AcDbSymbolTable
70
2
0
LAYER
5
50
100
AcDbSymbolTableRecord
100
AcDbLayerTableRecord
2
0
70
0
6
CONTINUOUS
0
ENDTAB
0
TABLE
2
STYLE
5
3
100
AcDbSymbolTable
70
1
0
STYLE
5
11
100
AcDbSymbolTableRecord
100
AcDbTextStyleTableRecord
2
STANDARD
70
0
0
ENDTAB
0
TABLE
2
VIEW
5
6
100
AcDbSymbolTable
70
0
0
ENDTAB
0
TABLE
2
UCS
5
7
100
AcDbSymbolTable
70
0
0
ENDTAB
0
TABLE
2
APPID
5
9
100
AcDbSymbolTable
70
2
0
APPID
5
12
100
AcDbSymbolTableRecord
100
AcDbRegAppTableRecord
2
ACAD
70
0
0
ENDTAB
0
TABLE
2
DIMSTYLE
5
A
100
AcDbSymbolTable
70
1
0
ENDTAB
0
TABLE
2
BLOCK_RECORD
5
1
100
AcDbSymbolTable
70
1
0
BLOCK_RECORD
5
1F
100
AcDbSymbolTableRecord
100
AcDbBlockTableRecord
2
*MODEL_SPACE
0
BLOCK_RECORD
5
1B
100
AcDbSymbolTableRecord
100
AcDbBlockTableRecord
2
*PAPER_SPACE
0
ENDTAB
0
ENDSEC
0
SECTION
2
BLOCKS
0
BLOCK
5
20
100
AcDbEntity
100
AcDbBlockBegin
2
*MODEL_SPACE
0
ENDBLK
5
21
100
AcDbEntity
100
AcDbBlockEnd
0
BLOCK
5
1C
100
AcDbEntity
100
AcDbBlockBegin
2
*PAPER_SPACE
0
ENDBLK
5
1D
100
AcDbEntity
100
AcDbBlockEnd
0
ENDSEC
0
SECTION
2
ENTITIES
0
CIRCLE
5
100
100
AcDbEntity
8
0
100
AcDbCircle
10
-1.8522095728016477
20
21.771284478164432
30
8.8817841970012523e-15
40
2
210
1.3243807169888059e-31
220
-7.7105841603639887e-63
230
1
0
CIRCLE
5
101
100
AcDbEntity
8
0
100
AcDbCircle
10
-1.852209572801641
20
8.1222937076188728
30
8.8817841970012523e-15
40
2
210
1.3243807169888059e-31
220
-7.7105841603639887e-63
230
1
0
CIRCLE
5
102
100
AcDbEntity
8
0
100
AcDbCircle
10
-7.7742847235069803
20
9.4739687156154382
30
8.8817841970012523e-15
40
2
210
6.4070745981477211e-32
220
-3.7302180012913812e-63
230
1
0
CIRCLE
5
103
100
AcDbEntity
8
0
100
AcDbCircle
10
2.8969259648210874
20
17.983975266714555
30
-8.8817841970012523e-15
40
2
210
9.4188941015972873e-32
220
-5.4837083276965068e-63
230
1
0
CIRCLE
5
104
100
AcDbEntity
8
0
100
AcDbCircle
10
-7.7742847235069847
20
20.419609470167867
30
8.8817841970012523e-15
40
2
210
6.4070745981477211e-32
220
-3.7302180012913812e-63
230
1
0
CIRCLE
5
105
100
AcDbEntity
8
0
100
AcDbCircle
10
2.8969259648210914
20
11.909602919068742
30
-8.8817841970012523e-15
40
2
210
9.4188941015972873e-32
220
-5.4837083276965068e-63
230
1
0
CIRCLE
5
106
100
AcDbEntity
8
0
100
AcDbCircle
10
-10.409856110495848
20
14.946789092891649
30
0
40
2
210
6.4070745981477211e-32
220
-3.7302180012913812e-63
230
1
0
CIRCLE
5
107
100
AcDbEntity
8
0
100
AcDbCircle
10
-3.4098561104958476
20
14.946789092891649
30
-8.8817841970012523e-15
40
2
210
8.9478110767235401e-32
220
3.6137805510495835e-63
230
1
0
CIRCLE
5
108
100
AcDbEntity
8
0
100
AcDbCircle
10
38.293767642835434
20
1.2612659129106696
30
8.8817841970012523e-15
40
1.0000000000000009
210
4.0551139480726927e-32
220
-5.5511151231257802e-17
230
1
0
CIRCLE
5
109
100
AcDbEntity
8
0
100
AcDbCircle
10
-38.293767642835441
20
1.2612659129106651
30
0
40
1.0000000000000009
210
4.0551139480726927e-32
220
-5.5511151231257802e-17
230
1
0
CIRCLE
5
110
100
AcDbEntity
8
0
100
AcDbCircle
10
38.293767642835434
20
60.8276978742986
30
0
40
0.99999999999999667
210
1.3915875263335358e-31
220
5.6202482312453828e-63
230
1
0
CIRCLE
5
111
100
AcDbEntity
8
0
100
AcDbCircle
10
-38.293767642835441
20
60.827697874298593
30
0
40
0.99999999999999667
210
1.3915875263335358e-31
220
5.6202482312453828e-63
230
1
0
CIRCLE
5
112
100
AcDbEntity
8
0
100
AcDbCircle
10
31.500000000000014
20
3.1935486106141964
30
8.8817841970012523e-15
40
1.4999999999999993
210
5.4068185974302653e-32
220
-3.1478659648636077e-63
230
1
0
CIRCLE
5
113
100
AcDbEntity
8
0
100
AcDbCircle
10
33.124966807383551
20
51.273556393992521
30
8.8817841970012523e-15
40
3.6000000000000032
210
1.4366443479787861e-31
220
1.9968627641714874e-62
230
1
0
CIRCLE
5
114
100
AcDbEntity
8
0
100
AcDbCircle
10
-31.5
20
27.193548610614208
30
8.8817841970012523e-15
40
1.4999999999999993
210
5.4068185974302653e-32
220
-3.1478659648636077e-63
230
1
0
CIRCLE
5
115
100
AcDbEntity
8
0
100
AcDbCircle
10
-32.918055233893959
20
34.936153821972425
30
8.8817841970012523e-15
40
1.0000000000000009
210
4.0551139480726927e-32
220
-5.5511151231257802e-17
230
1
0
CIRCLE
5
116
100
AcDbEntity
8
0
100
AcDbCircle
10
-31.499999999999993
20
3.1935486106142008
30
8.8817841970012523e-15
40
1.4999999999999993
210
5.4068185974302653e-32
220
-3.1478659648636077e-63
230
1
0
CIRCLE
5
117
100
AcDbEntity
8
0
100
AcDbCircle
10
31.500000000000007
20
27.193548610614208
30
8.8817841970012523e-15
40
1.4999999999999993
210
5.4068185974302653e-32
220
-3.1478659648636077e-63
230
1
0
CIRCLE
5
118
100
AcDbEntity
8
0
100
AcDbCircle
10
-32.918055233893959
20
58.736153821972444
30
8.8817841970012523e-15
40
1.0000000000000009
210
4.0551139480726927e-32
220
-5.5511151231257802e-17
230
1
0
CIRCLE
5
119
100
AcDbEntity
8
0
100
AcDbCircle
10
-9.6180552338939584
20
58.736153821972444
30
8.8817841970012523e-15
40
1
210
1.2165341844218089e-31
220
-1.1102230246251563e-16
230
1
0
CIRCLE
5
120
100
AcDbEntity
8
0
100
AcDbCircle
10
-9.6180552338939602
20
34.936153821972425
30
0
40
1
210
1.2165341844218089e-31
220
-1.1102230246251563e-16
230
1
0
CIRCLE
5
121
100
AcDbEntity
8
0
100
AcDbCircle
10
7.0000001043081301
20
49.000000730156934
30
8.8817841970012523e-15
40
8.1000000000000014
210
1.3865812128173951e-31
220
5.600029075675427e-63
230
1
0
LWPOLYLINE
5
122
100
AcDbEntity
8
0
100
AcDbPolyline
90
8
70
1
43
0.0
10
-42.293767642835441
20
1.2612659129106656
42
0.41421356237309576
10
-38.293767642835434
20
-2.7387340870893349
10
38.293767642835419
20
-2.7387340870893317
42
0.41421356237309609
10
42.293767642835427
20
1.2612659129106745
10
42.293767642835427
20
60.8276978742986
42
0.41421356237309537
10
38.293767642835427
20
64.827697874298593
10
-38.293767642835441
20
64.827697874298579
42
0.41421356237309503
10
-42.293767642835434
20
60.827697874298593
0
ENDSEC
0
SECTION
2
OBJECTS
0
DICTIONARY
5
C
100
AcDbDictionary
3
ACAD_GROUP
350
D
3
ACAD_MLINESTYLE
350
17
0
DICTIONARY
5
D
100
AcDbDictionary
0
DICTIONARY
5
1A
330
C
100
AcDbDictionary
0
DICTIONARY
5
17
100
AcDbDictionary
0
ENDSEC
0
EOF
